/* $XConsortium: xlogo64.xbm /main/4 1995/07/17 18:26:52 drk $ */
/*
 * Motif
 *
 * Copyright (c) 1987-2012, The Open Group. All rights reserved.
 *
 * These libraries and programs are free software; you can
 * redistribute them and/or modify them under the terms of the GNU
 * Lesser General Public License as published by the Free Software
 * Foundation; either version 2 of the License, or (at your option)
 * any later version.
 *
 * These libraries and programs are distributed in the hope that
 * they will be useful, but WITHOUT ANY WARRANTY; without even the
 * implied warranty of MERCHANTABILITY or FITNESS FOR A PARTICULAR
 * PURPOSE. See the GNU Lesser General Public License for more
 * details.
 *
 * You should have received a copy of the GNU Lesser General Public
 * License along with these librararies and programs; if not, write
 * to the Free Software Foundation, Inc., 51 Franklin Street, Fifth
 * Floor, Boston, MA 02110-1301 USA
*/
/*
 * HISTORY
*/

#define xlogo64_width 64
#define xlogo64_height 64
static unsigned char xlogo64_bits[] = {
   0xff, 0xff, 0x00, 0x00, 0x00, 0x00, 0x00, 0xf8, 0xfe, 0xff, 0x01, 0x00,
   0x00, 0x00, 0x00, 0xf8, 0xfc, 0xff, 0x03, 0x00, 0x00, 0x00, 0x00, 0x7c,
   0xf8, 0xff, 0x07, 0x00, 0x00, 0x00, 0x00, 0x3e, 0xf8, 0xff, 0x07, 0x00,
   0x00, 0x00, 0x00, 0x1f, 0xf0, 0xff, 0x0f, 0x00, 0x00, 0x00, 0x80, 0x0f,
   0xe0, 0xff, 0x1f, 0x00, 0x00, 0x00, 0x80, 0x0f, 0xc0, 0xff, 0x3f, 0x00,
   0x00, 0x00, 0xc0, 0x07, 0xc0, 0xff, 0x3f, 0x00, 0x00, 0x00, 0xe0, 0x03,
   0x80, 0xff, 0x7f, 0x00, 0x00, 0x00, 0xf0, 0x01, 0x00, 0xff, 0xff, 0x00,
   0x00, 0x00, 0xf8, 0x00, 0x00, 0xfe, 0xff, 0x01, 0x00, 0x00, 0xf8, 0x00,
   0x00, 0xfe, 0xff, 0x01, 0x00, 0x00, 0x7c, 0x00, 0x00, 0xfc, 0xff, 0x03,
   0x00, 0x00, 0x3e, 0x00, 0x00, 0xf8, 0xff, 0x07, 0x00, 0x00, 0x1f, 0x00,
   0x00, 0xf0, 0xff, 0x0f, 0x00, 0x80, 0x0f, 0x00, 0x00, 0xf0, 0xff, 0x0f,
   0x00, 0xc0, 0x07, 0x00, 0x00, 0xe0, 0xff, 0x1f, 0x00, 0xc0, 0x07, 0x00,
   0x00, 0xc0, 0xff, 0x3f, 0x00, 0xe0, 0x03, 0x00, 0x00, 0x80, 0xff, 0x7f,
   0x00, 0xf0, 0x01, 0x00, 0x00, 0x80, 0xff, 0x7f, 0x00, 0xf8, 0x00, 0x00,
   0x00, 0x00, 0xff, 0xff, 0x00, 0x7c, 0x00, 0x00, 0x00, 0x00, 0xfe, 0xff,
   0x01, 0x7c, 0x00, 0x00, 0x00, 0x00, 0xfc, 0xff, 0x03, 0x3e, 0x00, 0x00,
   0x00, 0x00, 0xfc, 0xff, 0x03, 0x1f, 0x00, 0x00, 0x00, 0x00, 0xf8, 0xff,
   0x87, 0x0f, 0x00, 0x00, 0x00, 0x00, 0xf0, 0xff, 0xcf, 0x07, 0x00, 0x00,
   0x00, 0x00, 0xe0, 0xff, 0xcf, 0x07, 0x00, 0x00, 0x00, 0x00, 0xe0, 0xff,
   0xe7, 0x03, 0x00, 0x00, 0x00, 0x00, 0xc0, 0xff, 0xf3, 0x01, 0x00, 0x00,
   0x00, 0x00, 0x80, 0xff, 0xf9, 0x00, 0x00, 0x00, 0x00, 0x00, 0x00, 0xff,
   0xfc, 0x00, 0x00, 0x00, 0x00, 0x00, 0x00, 0x7f, 0xfe, 0x00, 0x00, 0x00,
   0x00, 0x00, 0x00, 0x7e, 0xfe, 0x01, 0x00, 0x00, 0x00, 0x00, 0x00, 0x3e,
   0xff, 0x03, 0x00, 0x00, 0x00, 0x00, 0x00, 0x9f, 0xff, 0x07, 0x00, 0x00,
   0x00, 0x00, 0x80, 0xcf, 0xff, 0x07, 0x00, 0x00, 0x00, 0x00, 0xc0, 0xe7,
   0xff, 0x0f, 0x00, 0x00, 0x00, 0x00, 0xc0, 0xe7, 0xff, 0x1f, 0x00, 0x00,
   0x00, 0x00, 0xe0, 0xc3, 0xff, 0x3f, 0x00, 0x00, 0x00, 0x00, 0xf0, 0xc1,
   0xff, 0x3f, 0x00, 0x00, 0x00, 0x00, 0xf8, 0x80, 0xff, 0x7f, 0x00, 0x00,
   0x00, 0x00, 0x7c, 0x00, 0xff, 0xff, 0x00, 0x00, 0x00, 0x00, 0x7c, 0x00,
   0xfe, 0xff, 0x01, 0x00, 0x00, 0x00, 0x3e, 0x00, 0xfe, 0xff, 0x01, 0x00,
   0x00, 0x00, 0x1f, 0x00, 0xfc, 0xff, 0x03, 0x00, 0x00, 0x80, 0x0f, 0x00,
   0xf8, 0xff, 0x07, 0x00, 0x00, 0xc0, 0x07, 0x00, 0xf0, 0xff, 0x0f, 0x00,
   0x00, 0xe0, 0x03, 0x00, 0xf0, 0xff, 0x0f, 0x00, 0x00, 0xe0, 0x03, 0x00,
   0xe0, 0xff, 0x1f, 0x00, 0x00, 0xf0, 0x01, 0x00, 0xc0, 0xff, 0x3f, 0x00,
   0x00, 0xf8, 0x00, 0x00, 0x80, 0xff, 0x7f, 0x00, 0x00, 0x7c, 0x00, 0x00,
   0x80, 0xff, 0x7f, 0x00, 0x00, 0x3e, 0x00, 0x00, 0x00, 0xff, 0xff, 0x00,
   0x00, 0x3e, 0x00, 0x00, 0x00, 0xfe, 0xff, 0x01, 0x00, 0x1f, 0x00, 0x00,
   0x00, 0xfc, 0xff, 0x03, 0x80, 0x0f, 0x00, 0x00, 0x00, 0xfc, 0xff, 0x03,
   0xc0, 0x07, 0x00, 0x00, 0x00, 0xf8, 0xff, 0x07, 0xe0, 0x03, 0x00, 0x00,
   0x00, 0xf0, 0xff, 0x0f, 0xe0, 0x03, 0x00, 0x00, 0x00, 0xe0, 0xff, 0x1f,
   0xf0, 0x01, 0x00, 0x00, 0x00, 0xe0, 0xff, 0x1f, 0xf8, 0x00, 0x00, 0x00,
   0x00, 0xc0, 0xff, 0x3f, 0x7c, 0x00, 0x00, 0x00, 0x00, 0x80, 0xff, 0x7f,
   0x3e, 0x00, 0x00, 0x00, 0x00, 0x00, 0xff, 0xff};
