/* $XConsortium: icon2.xbm /main/4 1995/07/17 18:26:58 drk $ */
/*
 * Motif
 *
 * Copyright (c) 1987-2012, The Open Group. All rights reserved.
 *
 * These libraries and programs are free software; you can
 * redistribute them and/or modify them under the terms of the GNU
 * Lesser General Public License as published by the Free Software
 * Foundation; either version 2 of the License, or (at your option)
 * any later version.
 *
 * These libraries and programs are distributed in the hope that
 * they will be useful, but WITHOUT ANY WARRANTY; without even the
 * implied warranty of MERCHANTABILITY or FITNESS FOR A PARTICULAR
 * PURPOSE. See the GNU Lesser General Public License for more
 * details.
 *
 * You should have received a copy of the GNU Lesser General Public
 * License along with these librararies and programs; if not, write
 * to the Free Software Foundation, Inc., 51 Franklin Street, Fifth
 * Floor, Boston, MA 02110-1301 USA
*/
/*
 * HISTORY
*/
#define icon2_width 25
#define icon2_height 27
static char icon2_bits[] = {
   0xff, 0xff, 0xff, 0xff, 0x5d, 0x18, 0x04, 0xff, 0x6b, 0x77, 0xdf, 0xff,
   0x77, 0x78, 0xdf, 0xff, 0x6b, 0x77, 0xdf, 0xff, 0x5d, 0x18, 0xdc, 0xff,
   0xff, 0xff, 0xff, 0xff, 0x4f, 0xc6, 0xf0, 0xff, 0xaf, 0xba, 0xee, 0xff,
   0xef, 0x82, 0xf0, 0xff, 0xef, 0xba, 0xfe, 0xff, 0xef, 0xba, 0xfe, 0xff,
   0xff, 0xff, 0xff, 0xff, 0x41, 0xd0, 0x07, 0xff, 0xfd, 0xdd, 0xf7, 0xff,
   0xf1, 0xdd, 0xc7, 0xff, 0xfd, 0xdd, 0xf7, 0xff, 0x7d, 0x10, 0x04, 0xff,
   0xff, 0xff, 0xff, 0xff, 0xff, 0xff, 0xff, 0xff, 0xff, 0xff, 0xff, 0xff,
   0x41, 0x10, 0x04, 0xff, 0x77, 0xdf, 0xdf, 0xff, 0x77, 0x1c, 0xdc, 0xff,
   0x77, 0xff, 0xdd, 0xff, 0x77, 0x10, 0xdc, 0xff, 0xff, 0xff, 0xff, 0xff};
