/* $XConsortium: round.xbm /main/4 1995/07/17 18:26:17 drk $ */
/*
 * Motif
 *
 * Copyright (c) 1987-2012, The Open Group. All rights reserved.
 *
 * These libraries and programs are free software; you can
 * redistribute them and/or modify them under the terms of the GNU
 * Lesser General Public License as published by the Free Software
 * Foundation; either version 2 of the License, or (at your option)
 * any later version.
 *
 * These libraries and programs are distributed in the hope that
 * they will be useful, but WITHOUT ANY WARRANTY; without even the
 * implied warranty of MERCHANTABILITY or FITNESS FOR A PARTICULAR
 * PURPOSE. See the GNU Lesser General Public License for more
 * details.
 *
 * You should have received a copy of the GNU Lesser General Public
 * License along with these librararies and programs; if not, write
 * to the Free Software Foundation, Inc., 51 Franklin Street, Fifth
 * Floor, Boston, MA 02110-1301 USA
 * 
 */
/*
 * HISTORY
 */
#define round_width 16
#define round_height 16
static char round_bits[] = {
   0xf0, 0x07, 0xf8, 0x0f, 0xfc, 0x1f, 0xfe, 0x3f, 0xff, 0x7f, 0xff, 0x7f,
   0xff, 0x7f, 0xff, 0x7f, 0xff, 0x7f, 0xff, 0x7f, 0xff, 0x7f, 0xfe, 0x3f,
   0xfc, 0x1f, 0xf8, 0x0f, 0xf0, 0x07, 0x00, 0x00};
