/* XPM */
/* $XConsortium: small.xpm /main/4 1995/07/18 16:06:12 drk $ */
static char * girlface [] = {
"21 24 5 1",
" 	c none",
".	c #000000000000",
"X	c #FFFFCACAB6B6",
"o	c #FFFF00000000",
"O	c #B3B3F3F3EDED",
"                     ",
"                     ",
"         ......      ",
"       .....XXX.     ",
"     oo.....XXXX.    ",
" ...ooo....XXXXX.    ",
"....oo.....XXX..X.   ",
"..  oo...XXXX..XXX.  ",
". . oo...XXXXXXXXXX. ",
"... .....X.XXXXXXX.  ",
"  .......X..XXXXXXX. ",
" ..  .....XXXXXXXooo ",
" .    .....X.XXXXXoo ",
"  .    ...XXXXXXXXX. ",
"         .XXXXXX...  ",
"        ..XXXXX.     ",
"      ...XXXXXX.     ",
"    ..O..XXXXX...    ",
"  ..OOOO..XXX..OO.   ",
" .OOOOOOOO....OOOO   ",
" OOOOOOOOOOOOOOOOOO  ",
"                     ",
"                     ",
"                     "};
